PathFileType	4	(X/Y/Z)	RBDS09\RBDS09runT35.trc
DataRate	CameraRate	NumFrames	NumMarkers	Units	OrigDataRate	OrigDataStartFrame	OrigNumFrames
150.000000	150.000000	5	33	mm	150.000000	2812	4500
Frame#	Time	L.ASIS			L.Heel.Bottom			L.Heel.Lateral			L.Heel.Top			L.Iliac.Crest			L.MT1			L.MT5			L.PSIS			L.Shank.Bottom.Lateral			L.Shank.Bottom.Medial			L.Shank.Top.Lateral			L.Shank.Top.Medial			L.Thigh.Bottom.Lateral			L.Thigh.Bottom.Medial			L.Thigh.Top.Lateral			L.Thigh.Top.Medial			R.ASIS			R.ASY			R.Heel.Bottom			R.Heel.Lateral			R.Heel.Top			R.Iliac.Crest			R.MT1			R.MT5			R.PSIS			R.Shank.Bottom.Lateral			R.Shank.Bottom.Medial			R.Shank.Top.Lateral			R.Shank.Top.Medial			R.Thigh.Bottom.Lateral			R.Thigh.Bottom.Medial			R.Thigh.Top.Lateral			R.Thigh.Top.Medial			
		X1	Y1	Z1	X2	Y2	Z2	X3	Y3	Z3	X4	Y4	Z4	X5	Y5	Z5	X6	Y6	Z6	X7	Y7	Z7	X8	Y8	Z8	X9	Y9	Z9	X10	Y10	Z10	X11	Y11	Z11	X12	Y12	Z12	X13	Y13	Z13	X14	Y14	Z14	X15	Y15	Z15	X16	Y16	Z16	X17	Y17	Z17	X18	Y18	Z18	X19	Y19	Z19	X20	Y20	Z20	X21	Y21	Z21	X22	Y22	Z22	X23	Y23	Z23	X24	Y24	Z24	X25	Y25	Z25	X26	Y26	Z26	X27	Y27	Z27	X28	Y28	Z28	X29	Y29	Z29	X30	Y30	Z30	X31	Y31	Z31	X32	Y32	Z32	X33	Y33	Z33	

2813	18.74666666666667	2259.611187018796	913.5538469153645	926.9633483830116	1801.57416344319	463.1250976427609	1002.772466255713	1818.783352561897	432.7678957203963	957.6822394833713	1850.435806312762	455.7390619265329	999.2736331698109	2202.461949535722	965.8534729534912	888.0211085947692	1819.896277489152	248.4224608275078	1024.878823929347	1807.443387900741	290.9081854671942	922.5987473890034	2092.660925071362	942.4775726712796	998.2678873815876	1944.711727951803	421.9252073174934	933.1079716126908	1939.928915814477	454.3426324593425	975.869106274837	2020.944999980739	445.2536133619871	924.2574669520282	2017.985403601835	476.0759000887306	967.9727835654703	2212.854479239782	541.7631805822582	899.2167364547324	2168.134291769381	530.1750554309731	955.9170078917025	2176.253743009584	646.0828696758083	892.6722411815481	2135.894106768157	635.6511387985198	948.2539941104075	2241.560867607412	930.4269383920425	1163.88710115231	334269710.2041943	-467804341.5755957	-1216876617.53185	2061.861388351924	30.5039947450101	1059.201534941342	2088.938909729708	51.62729135761785	1108.263407605245	2076.505370638613	78.1435222058071	1058.048054438717	2167.214868092577	971.315907073173	1200.844214325986	2277.067223681933	43.16174023761856	1060.010172186348	2223.779795227515	34.63641196252746	1161.172386322656	2084.261535397305	945.7250805195777	1073.028471800329	2136.22822356495	169.737490348883	1125.835931166267	2116.826697936659	184.5611949585285	1080.497546255353	2152.760196746964	251.40815858281	1143.502462862075	2132.615012685351	262.4978924287373	1095.738866431716	2255.36892744387	538.3505419882634	1191.544611345666	2201.667002202313	519.1110455360189	1146.204234756414	2208.961609234124	637.4171438635175	1203.564532927803	2157.654180562235	618.5563465054601	1162.507371852433	
2814	18.75333333333333	2256.861518870647	913.3781690687647	926.6589647439297	1814.82325929063	457.6258358618225	999.3565824532132	1833.317760029447	427.3239901113928	954.7140797632298	1863.911618522929	451.5788157878653	996.3635879452448	2196.246688549683	964.0662309854529	888.2120644086739	1839.268449709403	243.8313010854871	1024.101432951056	1826.497892181993	284.8348320466484	921.1861828937767	2090.260630869785	941.5468357603979	998.7353273709509	1960.044984536969	419.5382371125013	930.9276909234181	1954.741908384149	451.884037448538	973.6557793602384	2035.890455276869	443.9103906563132	922.2185629328583	2032.492274871837	474.6975485344274	965.8737800729147	2222.588217608143	542.9216298110587	896.5888664559207	2177.473166139128	528.6641660287875	952.39301701416	2181.915080505032	645.6845192432301	890.9416205486741	2141.015748489755	632.832480812899	945.6912982400345	2240.169292824882	929.3080150993725	1164.38393019366	334631332.746846	-468311961.3533505	-1218196575.658061	2038.500674938873	31.63671725851463	1059.706250683585	2065.690428540692	52.59331906425604	1108.777890157605	2053.231284465395	79.18363969622334	1058.701578464744	2164.609788182624	968.5667849475442	1201.396422392769	2253.489028475372	43.81430331755231	1060.826462160711	2200.229087654278	34.84543391719944	1161.74730178297	2082.607994535525	944.7559851365799	1073.389116074218	2116.213104896201	171.0926590221789	1126.535958175173	2097.150846269981	186.5246549874545	1081.253266887073	2135.354566617675	252.2366294921582	1144.13289014528	2115.647833308826	263.8952435958514	1096.333460087503	2247.067918048468	535.6763360320616	1192.104587738067	2192.931079805212	517.646783760991	1146.774778488204	2202.881668697482	635.768681765083	1203.885575862846	2151.171133959836	618.0026137062605	1162.797814399127	
2815	18.76	2254.382314875775	914.07902048193	926.2880896841945	1827.780427801919	450.5643349797845	996.1776823951324	1847.6412974185	420.5261335207849	951.9288921479802	1877.080773519151	446.1410312778362	993.5901340706571	2189.767866255357	963.6406617557252	888.6329826714895	1859.472425976	237.9774653533952	1023.286983011381	1846.046546968384	277.5507397343889	919.8165658914776	2088.253802647118	941.4059683959287	999.3347049967363	1975.097385188761	416.3745451783579	928.742589042618	1968.977281791023	448.6955477381608	971.3369236344503	2050.348800312314	442.2959201099125	920.1385454857743	2046.210478710896	473.1535914526441	963.6160991491521	2232.232013340039	545.2712873765286	894.0594890515098	2186.880834862174	528.4765477102126	949.0146468446426	2187.634455775179	646.3334081336523	889.1285948830375	2146.35000537085	631.183284301243	943.1008040866947	2239.1707528832	928.6896016374201	1164.790764555808	334993215.9893211	-468819948.2131552	-1219517487.951875	2015.184273176186	33.01099201094627	1060.160316234841	2042.522073297479	53.7037334982885	1109.270933690327	2030.017794396664	80.45243665673529	1059.367411012302	2162.400558984967	967.0243682010806	1201.897485859297	2229.9067544759	44.37742989379178	1061.583702832593	2176.72591624146	34.90488497852584	1162.271824941236	2081.392922219257	944.518822506869	1073.88355798844	2095.773861875248	172.4845024261218	1127.186154557083	2077.151584325624	188.4740777315991	1081.911409999317	2117.181949885989	253.0491181028407	1144.721661774791	2098.038191710326	265.2160261547282	1096.833047139669	2237.602303502904	533.3268113631203	1192.745398688466	2182.793348328154	516.6890862439027	1147.733440916847	2196.135595553968	634.6238035924996	1204.249289198114	2143.830805553286	618.1474830631124	1163.326277421316	
2816	18.76666666666667	2252.264373074072	915.5963738357667	925.9176963760818	1840.499780264101	441.9621410430894	993.3709485112531	1861.772806794693	412.4346524958078	949.4314100332521	1889.965389434804	439.4339868671228	991.0710014477153	2183.374728987394	964.4914225738599	889.260955309041	1880.447736984392	230.9654531106465	1022.393687743488	1866.033022558297	269.2202164950517	918.4798282269962	2086.677768094645	942.0069947590283	1000.037002842519	1989.820551707217	412.4205900035342	926.6151963884823	1982.608287064307	444.7583450861698	968.9766499324508	2064.26194737176	440.3590116706621	918.049108074251	2059.093992469528	471.3782108482325	961.2416151913845	2241.734462029772	548.7513896176922	891.6643382545577	2196.322114551678	529.5884318100475	945.8586009522775	2193.385722413872	647.9982962355775	887.2742016250942	2151.892080111366	630.7022062527608	940.5521598536436	2238.565920428595	928.5227352538668	1165.1368248485	335355360.0255502	-469328302.2876883	-1220839354.75804	1991.877071059718	34.7590922417309	1060.52857811708	2019.420040143723	55.09619773964818	1109.69447917283	2006.885116317311	82.07878000886225	1059.973124914477	2160.747401982331	966.6713342389945	1202.355321107921	2206.31553194864	44.74500850079627	1062.182635158914	2153.242878824146	34.86422027760578	1162.684939674834	2080.622865723736	944.9741810952199	1074.488804260424	2074.98450383642	174.0031409801771	1127.708613174334	2056.857334304134	190.5016081343717	1082.407661506316	2098.35659755752	253.9643522097427	1145.204244950803	2079.847404512567	266.5833076023006	1097.189508846274	2227.106562225332	531.4183168812214	1193.375340790945	2171.412064879444	516.3524127083547	1148.988928543151	2188.811313171757	634.0413899535163	1204.620572982387	2135.738474978075	619.0469989564092	1164.059573944728	
2817	18.77333333333333	2250.582398678722	917.8513348239059	925.6188920587275	1853.069341757669	431.8605016850886	991.0397716535837	1875.765073134651	403.1169433807803	947.3028108370111	1902.619643365988	431.4799330145764	988.9032374336866	2177.439149913734	966.4691875758695	890.0439381257058	1902.155394978419	222.9278662106276	1021.38444490871	1886.427002595394	260.0103202384196	917.1630115793135	2085.550707007333	943.2981872610114	1000.795888978358	2004.2009094389	407.685227280272	924.6053249858348	1995.653810161804	440.0615225324948	966.6480221066686	2077.604118629248	438.057375691225	915.9862938947639	2071.140802764851	469.2972358815383	958.8071341229421	2251.037417205159	553.2846910886382	889.4261192438042	2205.740519172476	531.9500938557097	942.9782345587253	2199.134479385657	650.6367189498877	885.419063584432	2157.611014306694	631.3669043258125	938.102113233496	2238.334125758084	928.7565395066313	1165.458603601044	335717764.9494643	-469837023.7096277	-1222162176.421303	1968.567721450333	37.0345948463852	1060.807359815389	1996.388679211814	56.91356949593229	1110.03654580886	1983.867778151549	84.20784162418543	1060.495752524807	2159.774033300869	967.4230327751663	1202.773871513059	2182.71037310321	44.86642273097459	1062.564258245873	2129.763343213793	34.7845351031063	1162.953516808461	2080.287880146053	946.0710750965128	1075.164026987371	2053.942848169435	175.7761759163805	1128.069635373758	2036.325825742582	192.735373039824	1082.72135030967	2079.021660052364	255.1362327028274	1145.551643201524	2061.171000092807	268.1543636689967	1097.388997311202	2215.755803577123	530.0799310864265	1193.902348798453	2159.014641101952	516.7644191963417	1150.41054961964	2181.020276344455	634.0827496143045	1204.960438143424	2127.048149602042	620.7582616607085	1164.932151724067	
